<svg width="428" height="67" viewBox="0 0 428 67" fill="none" xmlns="http://www.w3.org/2000/svg">
<g clip-path="url(#clip0_3013_25)">
<path d="M154.02 54.62L165.04 48.32C167.08 52.39 170.5 54.43 175.41 54.43C182.17 54.43 185.5 51 185.5 45.45V0.820007H198.18V45.45C198.18 52.21 196.05 57.49 191.79 61.28C187.53 65.08 182.07 66.93 175.4 66.93C165.22 66.93 158.09 62.86 154.01 54.62H154.02Z" fill="black"/>
<path d="M240.56 19.34H252.5V65.63H240.56V60.17C236.95 64.71 231.95 66.93 225.47 66.93C218.99 66.93 213.99 64.61 209.55 59.89C205.2 55.17 202.98 49.34 202.98 42.49C202.98 35.64 205.2 29.9 209.55 25.18C213.99 20.46 219.27 18.05 225.47 18.05C231.67 18.05 236.95 20.27 240.56 24.81V19.35V19.34ZM227.7 55.54C231.4 55.54 234.46 54.34 236.87 51.93C239.37 49.43 240.57 46.28 240.57 42.49C240.57 38.7 239.37 35.55 236.87 33.14C234.46 30.64 231.41 29.44 227.7 29.44C223.99 29.44 220.94 30.64 218.53 33.14C216.12 35.55 214.92 38.69 214.92 42.49C214.92 46.29 216.12 49.43 218.53 51.93C220.94 54.34 223.99 55.54 227.7 55.54Z" fill="black"/>
<path d="M316.67 19.34H325.1L310.75 65.63H302.51L291.68 31.38L280.85 65.63H272.61L258.26 19.34H266.69L276.87 54.52L287.8 19.34H295.58L306.5 54.61L316.68 19.34H316.67Z" fill="black"/>
<path d="M333.4 46.19C334.97 54.43 341.36 59.24 350.16 59.24C356.27 59.24 360.71 57.02 363.49 52.48L370.34 56.37C365.8 63.31 359.05 66.83 349.97 66.83C342.66 66.83 336.64 64.52 332.01 59.98C327.47 55.35 325.16 49.52 325.16 42.48C325.16 35.44 327.38 29.7 331.92 25.07C336.46 20.44 342.29 18.13 349.42 18.13C356.18 18.13 361.73 20.54 365.99 25.35C370.34 30.07 372.47 35.81 372.47 42.57C372.47 43.77 372.38 44.98 372.19 46.18H333.4V46.19ZM333.4 39.15H364.32C362.93 30.36 356.82 25.73 349.41 25.73C340.8 25.73 334.78 31.01 333.39 39.15H333.4Z" fill="black"/>
<path d="M420.32 25.27C424.86 29.99 427.17 35.73 427.17 42.49C427.17 49.25 424.86 55.08 420.32 59.8C415.78 64.52 410.23 66.84 403.75 66.84C396.07 66.84 390.23 63.79 386.25 57.67V65.63H378.2V0.820007H386.25V27.3C390.23 21.19 396.06 18.14 403.75 18.14C410.23 18.14 415.79 20.55 420.32 25.27ZM414.39 54.34C417.54 51.1 419.11 47.21 419.11 42.49C419.11 37.77 417.54 33.88 414.39 30.73C411.24 27.49 407.35 25.92 402.73 25.92C398.11 25.92 394.12 27.49 390.97 30.73C387.82 33.88 386.25 37.77 386.25 42.49C386.25 47.21 387.82 51.1 390.97 54.34C394.12 57.49 398.01 59.06 402.73 59.06C407.45 59.06 411.25 57.49 414.39 54.34Z" fill="black"/>
<path d="M63.5899 0.179993C63.5899 20.26 47.6199 36.57 27.6899 37.2V66.27C63.6599 65.64 92.6299 36.3 92.6299 0.179993H63.5899Z" fill="black"/>
<path d="M27.4901 9.83997H0.830078V37.37H27.4901V9.83997Z" fill="black"/>
<path d="M120.14 0.179993C120.14 20.26 104.17 36.57 84.2402 37.2V66.27C120.21 65.64 149.18 36.3 149.18 0.179993H120.14Z" fill="black"/>
</g>
<defs>
<clipPath id="clip0_3013_25">
<rect width="428" height="67" fill="white"/>
</clipPath>
</defs>
</svg>
